<?xml version="1.0" encoding="UTF-8" standalone="no"?><!DOCTYPE svg PUBLIC "-//W3C//DTD SVG 1.1//EN" "http://www.w3.org/Graphics/SVG/1.1/DTD/svg11.dtd"><svg width="100%" height="100%" viewBox="0 0 1189 1393" version="1.1" xmlns="http://www.w3.org/2000/svg" xmlns:xlink="http://www.w3.org/1999/xlink" xml:space="preserve" xmlns:serif="http://www.serif.com/" style="fill-rule:evenodd;clip-rule:evenodd;stroke-linejoin:round;stroke-miterlimit:2;"><g><g><path d="M120.772,386.871c0.423,-0.658 0.865,-1.309 1.326,-1.953c0,0 133.199,-185.315 271.729,-296.275c67.024,-53.685 136.567,-88.953 194.533,-88.641c76.912,0.414 168.284,52.093 250.438,122.164c111.132,94.786 206.351,220.166 229.822,265.354c75.449,99.673 120.227,223.808 120.227,358.32c0,326.9 -266.823,646.473 -593.722,646.473c-326.873,-0 -595.125,-319.6 -595.125,-646.473c0,-134.088 44.497,-257.864 119.506,-357.366c0.412,-0.546 0.833,-1.08 1.266,-1.603Zm-15.205,482.852c53.918,231.487 252.211,431.504 489.558,431.504c213.472,0 394.555,-161.847 467.812,-362.816c-5.406,8.258 -11.585,17.036 -18.497,26.132c-51.468,67.73 -142.219,162.386 -195.925,192.659c-67.313,37.941 -180.202,78.19 -321.935,-33.772c-135.622,-107.135 -331.458,-209.278 -421.013,-253.707Zm482.774,-1.933c-55.549,42.383 -113.036,64.084 -169.3,71.784c57.259,35.396 114.304,73.786 163.678,112.789c97.571,77.076 174.986,52.063 221.325,25.943c33.472,-18.867 82.746,-67.39 124.378,-114.994c-111.701,23.27 -240.218,13.223 -340.081,-95.522Zm401.501,-434.177c-49.476,42.422 -146.333,109.748 -277.465,126.458c-7.318,0.932 -14.932,1.947 -22.552,3.297c-22.482,3.983 -48.704,8.751 -49.264,40.094c-0.184,10.327 -0.323,21.625 -0.426,33.391c0.465,55.181 0.218,123.348 0.077,152.163c81.415,102.883 193.854,104.724 286.607,81.79c36.039,-8.911 69.404,-21.537 97.575,-34.206c1.211,-0.616 2.451,-1.179 3.718,-1.685c29.122,-13.311 52.398,-26.492 66.912,-35.286c1.81,-17.867 2.737,-35.823 2.737,-53.789c0,-115.003 -38.65,-221.051 -103.674,-305.847c-1.207,-1.519 -2.327,-3.13 -3.348,-4.828l-0.135,-0.226l-0.206,-0.346c-0.095,-0.166 -0.191,-0.332 -0.286,-0.497l-0.27,-0.483Zm-788.886,-2.248c-3.168,4.303 -4.846,6.646 -4.846,6.646c-0.611,0.852 -1.246,1.676 -1.905,2.474c-0.613,0.955 -1.269,1.896 -1.965,2.819c-62.858,83.384 -100.391,186.908 -101.142,299.108c25.694,20.042 82.139,60 153.262,85.93c88.972,32.437 202.431,42.568 305.165,-45.704c-0.13,-22.329 -0.446,-89.175 0.043,-145.817c-0.102,-11.942 -0.239,-23.245 -0.42,-33.359c-0.422,-23.642 -16.139,-31.891 -32.682,-36.445c-12.859,-3.541 -26.474,-5.333 -39.134,-6.946c-133.352,-16.993 -228.902,-86.188 -276.376,-128.706Zm737.972,-73.359c-39.17,-49.649 -96.734,-113.226 -159.239,-166.538c-63.831,-54.443 -132.062,-100.059 -191.82,-100.381c-41.574,-0.224 -89.027,30.144 -137.099,68.648c-73.662,59.002 -145.619,140.499 -194.142,200.042c35.478,33.027 116.406,95.705 232.153,110.455c36.949,4.708 76.892,13.213 106.407,35.381c21.997,-16.88 50.133,-26.336 78.839,-31.422c9.091,-1.61 18.172,-2.847 26.902,-3.959c117.631,-14.99 201.781,-79.32 237.999,-112.226Z" style="fill:#fff;"/></g></g></svg>