<?xml version="1.0" encoding="UTF-8" standalone="no"?><!DOCTYPE svg PUBLIC "-//W3C//DTD SVG 1.1//EN" "http://www.w3.org/Graphics/SVG/1.1/DTD/svg11.dtd"><svg width="100%" height="100%" viewBox="0 0 1793 301" version="1.1" xmlns="http://www.w3.org/2000/svg" xmlns:xlink="http://www.w3.org/1999/xlink" xml:space="preserve" xmlns:serif="http://www.serif.com/" style="fill-rule:evenodd;clip-rule:evenodd;stroke-linejoin:round;stroke-miterlimit:2;"><g><g><g><path d="M26.1,83.607c0.092,-0.142 0.187,-0.282 0.287,-0.422c-0,0 28.786,-40.048 58.724,-64.028c14.484,-11.602 29.514,-19.224 42.041,-19.157c16.621,0.09 36.368,11.258 54.122,26.401c24.017,20.485 44.595,47.581 49.668,57.347c16.305,21.54 25.982,48.367 25.982,77.437c0,70.647 -57.663,139.711 -128.31,139.711c-70.642,-0 -128.614,-69.07 -128.614,-139.711c0,-28.978 9.616,-55.728 25.827,-77.231c0.089,-0.118 0.18,-0.234 0.273,-0.347Zm-3.286,104.351c11.653,50.027 54.506,93.253 105.8,93.253c46.133,-0 85.268,-34.977 101.1,-78.409c-1.169,1.785 -2.504,3.682 -3.998,5.647c-11.123,14.638 -30.735,35.094 -42.342,41.636c-14.547,8.2 -38.944,16.898 -69.574,-7.298c-29.309,-23.153 -71.632,-45.228 -90.986,-54.829Zm104.334,-0.418c-12.005,9.159 -24.429,13.849 -36.588,15.513c12.374,7.65 24.702,15.946 35.373,24.375c21.086,16.657 37.816,11.252 47.831,5.607c7.233,-4.077 17.882,-14.564 26.879,-24.852c-24.14,5.029 -51.914,2.858 -73.495,-20.643Zm86.769,-93.831c-10.693,9.168 -31.625,23.718 -59.964,27.329c-1.581,0.202 -3.227,0.421 -4.873,0.713c-4.859,0.86 -10.526,1.891 -10.647,8.664c-0.04,2.232 -0.07,4.674 -0.092,7.217c0.1,11.925 0.047,26.657 0.017,32.884c17.594,22.234 41.894,22.632 61.939,17.676c7.788,-1.926 14.999,-4.655 21.087,-7.393c0.262,-0.133 0.53,-0.254 0.803,-0.364c6.294,-2.876 11.324,-5.725 14.461,-7.626c0.391,-3.861 0.591,-7.741 0.591,-11.624c0,-24.854 -8.352,-47.772 -22.405,-66.097c-0.261,-0.329 -0.503,-0.677 -0.723,-1.044l-0.03,-0.048l-0.044,-0.075c-0.021,-0.036 -0.041,-0.072 -0.062,-0.108l-0.058,-0.104Zm-170.488,-0.486c-0.685,0.93 -1.047,1.437 -1.047,1.437c-0.132,0.184 -0.269,0.362 -0.412,0.534c-0.132,0.206 -0.274,0.41 -0.425,0.609c-13.584,18.021 -21.695,40.394 -21.858,64.641c5.553,4.332 17.752,12.967 33.122,18.571c19.228,7.01 43.748,9.199 65.95,-9.877c-0.028,-4.826 -0.096,-19.272 0.009,-31.513c-0.022,-2.581 -0.051,-5.024 -0.09,-7.21c-0.092,-5.109 -3.488,-6.892 -7.063,-7.876c-2.779,-0.765 -5.722,-1.152 -8.458,-1.501c-28.819,-3.672 -49.468,-18.626 -59.728,-27.815Zm159.485,-15.854c-8.466,-10.729 -20.906,-24.469 -34.414,-35.991c-13.794,-11.765 -28.54,-21.624 -41.454,-21.693c-8.985,-0.048 -19.24,6.514 -29.629,14.836c-15.919,12.751 -31.47,30.363 -41.957,43.231c7.668,7.138 25.157,20.683 50.171,23.871c7.986,1.017 16.618,2.855 22.996,7.646c4.754,-3.648 10.835,-5.692 17.038,-6.791c1.965,-0.348 3.927,-0.615 5.814,-0.855c25.422,-3.24 43.607,-17.142 51.435,-24.254Z" style="fill:#fff;"/></g></g><g><path d="M384.11,244.999c9.214,-0 18.186,-1.938 25.945,-5.329l0,-35.14c-6.062,7.035 -15.276,11.644 -25.945,11.644c-19.883,0 -34.431,-15.283 -34.431,-34.689c-0,-19.407 14.548,-34.932 34.431,-34.932c10.669,0 19.883,4.609 25.945,11.886l0,-35.139c-7.759,-3.391 -16.731,-5.329 -25.945,-5.329c-36.854,0 -64.711,28.098 -64.711,63.514c0,35.416 27.857,63.514 64.711,63.514Z" style="fill:#fff;fill-rule:nonzero;"/><path d="M488.63,244.999c18.194,-0 32.022,-6.783 41.239,-18.167l0.726,15.742l29.311,-0l-0,-122.178l-31.492,-0l0,13.805c-8.975,-10.417 -22.317,-16.715 -39.784,-16.715c-32.985,0 -60.359,28.34 -60.359,63.757c0,35.658 27.374,63.756 60.359,63.756Zm6.065,-28.582c-19.649,-0 -34.932,-15.768 -34.932,-35.174c-0,-19.407 15.283,-34.932 34.932,-34.932c19.407,-0 34.689,15.525 34.689,34.932c0,19.406 -15.282,35.174 -34.689,35.174Z" style="fill:#fff;fill-rule:nonzero;"/><path d="M592.913,242.574l31.492,-0l-0,-73.471c-0,-12.608 8.007,-23.035 20.625,-23.035c12.376,0 20.869,9.457 20.869,21.581l-0,74.925l31.491,-0l0,-73.471c0,-12.608 8.25,-23.035 21.111,-23.035c11.89,0 20.383,9.457 20.383,21.581l0,74.925l31.492,-0l-0,-77.35c-0,-26.665 -19.138,-47.253 -45.081,-47.253c-15.772,0 -28.389,7.267 -36.383,19.135c-8.479,-11.868 -21.076,-19.135 -34.903,-19.135c-11.891,0 -22.325,5.571 -29.604,14.533l-0,-12.108l-31.492,-0l0,122.178Z" style="fill:#fff;fill-rule:nonzero;"/><path d="M919.272,180.266c-0.485,-37.35 -27.643,-62.295 -62.802,-62.295c-37.341,0 -64.499,28.102 -64.499,63.506c0,35.422 26.673,63.522 65.469,63.522c25.703,-0 46.313,-12.594 56.255,-32.711l-25.218,-10.436c-6.547,11.407 -18.428,17.717 -31.279,17.717c-17.944,-0 -32.007,-12.621 -34.432,-32.522l96.263,-0l0.243,-6.781Zm-62.559,-37.35c14.306,-0 24.005,7.771 29.097,20.156l-59.892,-0c5.335,-12.385 16.003,-20.156 30.795,-20.156Z" style="fill:#fff;fill-rule:nonzero;"/><rect x="944.019" y="55.897" width="31.249" height="186.677" style="fill:#fff;fill-rule:nonzero;"/><rect x="1008.28" y="55.897" width="31.249" height="186.677" style="fill:#fff;fill-rule:nonzero;"/><path d="M1129.5,244.999c36.384,-0 64.484,-28.099 64.484,-63.514c-0,-35.416 -28.1,-63.514 -64.484,-63.514c-36.869,0 -64.726,28.098 -64.726,63.514c-0,35.415 27.857,63.514 64.726,63.514Zm0,-29.067c-19.407,-0 -34.689,-15.283 -34.689,-34.447c-0,-19.164 15.282,-34.205 34.689,-34.205c18.679,0 33.962,15.041 33.962,34.205c-0,19.164 -15.283,34.447 -33.962,34.447Z" style="fill:#fff;fill-rule:nonzero;"/></g><g><path d="M1302.25,213.333l16.092,1.99c-2.538,9.401 -7.239,16.698 -14.103,21.889c-6.863,5.191 -15.631,7.787 -26.301,7.787c-13.44,-0 -24.096,-4.139 -31.969,-12.416c-7.873,-8.277 -11.81,-19.885 -11.81,-34.824c0,-15.458 3.98,-27.455 11.94,-35.992c7.959,-8.536 18.284,-12.804 30.974,-12.804c12.285,-0 22.321,4.181 30.108,12.545c7.787,8.363 11.68,20.13 11.68,35.3c0,0.922 -0.029,2.307 -0.086,4.152l-68.523,0c0.576,10.094 3.432,17.823 8.565,23.188c5.133,5.364 11.536,8.046 19.207,8.046c5.71,-0 10.584,-1.5 14.622,-4.499c4.037,-2.999 7.239,-7.787 9.604,-14.362Zm-51.133,-25.177l51.306,-0c-0.693,-7.729 -2.654,-13.526 -5.884,-17.391c-4.96,-5.998 -11.391,-8.998 -19.293,-8.998c-7.153,0 -13.166,2.394 -18.04,7.182c-4.874,4.787 -7.57,11.189 -8.089,19.207Z" style="fill:#fff;fill-rule:nonzero;"/><path d="M1331.67,215.496l15.4,-2.423c0.865,6.172 3.274,10.902 7.225,14.189c3.951,3.288 9.473,4.932 16.568,4.932c7.152,-0 12.459,-1.457 15.919,-4.369c3.461,-2.913 5.192,-6.331 5.192,-10.253c-0,-3.518 -1.529,-6.287 -4.586,-8.306c-2.134,-1.384 -7.441,-3.143 -15.919,-5.277c-11.421,-2.884 -19.337,-5.379 -23.75,-7.484c-4.412,-2.106 -7.758,-5.018 -10.036,-8.739c-2.278,-3.72 -3.418,-7.83 -3.418,-12.329c0,-4.095 0.938,-7.887 2.812,-11.377c1.875,-3.489 4.427,-6.388 7.657,-8.695c2.423,-1.788 5.725,-3.302 9.907,-4.542c4.181,-1.24 8.666,-1.86 13.453,-1.86c7.21,-0 13.541,1.038 18.991,3.114c5.451,2.077 9.474,4.889 12.07,8.436c2.595,3.547 4.383,8.291 5.364,14.232l-15.228,2.077c-0.692,-4.73 -2.696,-8.421 -6.013,-11.075c-3.316,-2.653 -8.003,-3.98 -14.059,-3.98c-7.152,0 -12.257,1.183 -15.314,3.548c-3.057,2.365 -4.585,5.133 -4.585,8.306c-0,2.018 0.634,3.835 1.903,5.45c1.269,1.673 3.259,3.057 5.97,4.153c1.557,0.577 6.143,1.904 13.756,3.98c11.017,2.942 18.703,5.35 23.058,7.224c4.355,1.875 7.772,4.6 10.252,8.176c2.48,3.576 3.721,8.018 3.721,13.324c-0,5.191 -1.515,10.08 -4.543,14.665c-3.028,4.586 -7.397,8.133 -13.107,10.642c-5.711,2.509 -12.171,3.764 -19.381,3.764c-11.939,-0 -21.038,-2.481 -27.296,-7.441c-6.258,-4.96 -10.253,-12.315 -11.983,-22.062Z" style="fill:#fff;fill-rule:nonzero;"/><path d="M1460.5,228.993l2.249,13.756c-4.384,0.923 -8.306,1.384 -11.767,1.384c-5.652,0 -10.036,-0.894 -13.15,-2.682c-3.115,-1.788 -5.307,-4.138 -6.576,-7.051c-1.269,-2.913 -1.903,-9.041 -1.903,-18.385l-0,-52.863l-11.421,-0l0,-12.113l11.421,0l-0,-22.754l15.487,-9.344l-0,32.098l15.66,0l-0,12.113l-15.66,-0l-0,53.728c-0,4.441 0.274,7.296 0.822,8.565c0.547,1.269 1.442,2.279 2.682,3.028c1.24,0.75 3.013,1.125 5.321,1.125c1.73,0 4.008,-0.202 6.835,-0.605Z" style="fill:#fff;fill-rule:nonzero;"/><path d="M1535.94,242.922l-0,-13.497c-7.152,10.382 -16.871,15.574 -29.157,15.574c-5.422,-0 -10.483,-1.039 -15.184,-3.115c-4.701,-2.077 -8.19,-4.687 -10.469,-7.83c-2.278,-3.144 -3.879,-6.994 -4.802,-11.55c-0.634,-3.057 -0.951,-7.902 -0.951,-14.535l-0,-56.93l15.573,0l0,50.96c0,8.132 0.317,13.612 0.952,16.438c0.98,4.096 3.057,7.311 6.229,9.647c3.173,2.336 7.095,3.504 11.767,3.504c4.672,0 9.055,-1.197 13.151,-3.59c4.095,-2.394 6.993,-5.653 8.695,-9.777c1.701,-4.124 2.552,-10.108 2.552,-17.953l0,-49.229l15.573,0l0,91.883l-13.929,0Z" style="fill:#fff;fill-rule:nonzero;"/><path d="M1633.88,242.922l0,-11.593c-5.825,9.113 -14.391,13.67 -25.696,13.67c-7.325,-0 -14.059,-2.019 -20.202,-6.057c-6.143,-4.037 -10.901,-9.675 -14.276,-16.914c-3.374,-7.239 -5.061,-15.559 -5.061,-24.961c0,-9.171 1.529,-17.491 4.586,-24.961c3.057,-7.469 7.642,-13.194 13.756,-17.174c6.114,-3.979 12.949,-5.969 20.505,-5.969c5.537,-0 10.469,1.168 14.795,3.504c4.326,2.336 7.844,5.378 10.555,9.127l0,-45.509l15.487,0l-0,126.837l-14.449,0Zm-49.229,-45.855c0,11.767 2.48,20.563 7.441,26.388c4.96,5.826 10.815,8.739 17.563,8.739c6.806,-0 12.589,-2.783 17.347,-8.349c4.759,-5.566 7.138,-14.06 7.138,-25.48c-0,-12.574 -2.423,-21.803 -7.268,-27.686c-4.845,-5.883 -10.815,-8.825 -17.909,-8.825c-6.922,-0 -12.704,2.826 -17.347,8.479c-4.643,5.652 -6.965,14.564 -6.965,26.734Z" style="fill:#fff;fill-rule:nonzero;"/><path d="M1672.9,133.995l0,-17.91l15.574,0l-0,17.91l-15.574,-0Zm0,108.927l0,-91.883l15.574,0l-0,91.883l-15.574,0Z" style="fill:#fff;fill-rule:nonzero;"/><path d="M1706.38,196.981c0,-17.016 4.73,-29.619 14.189,-37.809c7.902,-6.806 17.535,-10.209 28.898,-10.209c12.631,-0 22.956,4.138 30.973,12.415c8.018,8.277 12.026,19.712 12.026,34.305c0,11.824 -1.773,21.125 -5.321,27.902c-3.547,6.777 -8.709,12.041 -15.486,15.79c-6.778,3.749 -14.175,5.624 -22.192,5.624c-12.863,-0 -23.26,-4.124 -31.191,-12.373c-7.93,-8.248 -11.896,-20.13 -11.896,-35.645Zm16.006,-0c0,11.766 2.567,20.577 7.7,26.431c5.134,5.855 11.594,8.782 19.381,8.782c7.729,-0 14.16,-2.942 19.293,-8.825c5.134,-5.883 7.7,-14.853 7.7,-26.907c0,-11.363 -2.581,-19.972 -7.743,-25.826c-5.162,-5.855 -11.579,-8.782 -19.25,-8.782c-7.787,-0 -14.247,2.913 -19.381,8.738c-5.133,5.826 -7.7,14.622 -7.7,26.389Z" style="fill:#fff;fill-rule:nonzero;"/></g></g></svg>