<svg width="153" height="20" viewBox="0 0 153 20" fill="none" xmlns="http://www.w3.org/2000/svg">
<path d="M6.68128 19.7C7.6326 19.7 8.55895 19.5061 9.36005 19.1668V15.6511C8.73416 16.355 7.78283 16.8161 6.68128 16.8161C4.6284 16.8161 3.12635 15.287 3.12635 13.3455C3.12635 11.4039 4.6284 9.85061 6.68128 9.85061C7.78283 9.85061 8.73416 10.3117 9.36005 11.0398V7.52419C8.55895 7.18492 7.6326 6.99103 6.68128 6.99103C2.87618 6.99103 0 9.80219 0 13.3455C0 16.8888 2.87618 19.7 6.68128 19.7Z" fill="#525252"/>
<path d="M17.4745 19.7047C19.353 19.7047 20.7807 19.0261 21.7324 17.8872L21.8073 19.4621H24.8336V7.23841H21.5821V8.61957C20.6555 7.57737 19.2779 6.94727 17.4745 6.94727C14.0689 6.94727 11.2426 9.78264 11.2426 13.3261C11.2426 16.8936 14.0689 19.7047 17.4745 19.7047V19.7047ZM18.1007 16.8452C16.072 16.8452 14.494 15.2676 14.494 13.3261C14.494 11.3844 16.072 9.83116 18.1007 9.83116C20.1044 9.83116 21.6823 11.3844 21.6823 13.3261C21.6823 15.2676 20.1044 16.8452 18.1007 16.8452Z" fill="#525252"/>
<path d="M28.242 19.4574H31.4935V12.1067C31.4935 10.8453 32.3202 9.80209 33.623 9.80209C34.9008 9.80209 35.7776 10.7482 35.7776 11.9612V19.4574H39.029V12.1067C39.029 10.8453 39.8808 9.80209 41.2087 9.80209C42.4363 9.80209 43.3132 10.7482 43.3132 11.9612V19.4574H46.5646V11.7186C46.5646 9.05082 44.5887 6.99103 41.9101 6.99103C40.2817 6.99103 38.979 7.71808 38.1537 8.90545C37.2782 7.71808 35.9776 6.99103 34.55 6.99103C33.3223 6.99103 32.245 7.5484 31.4935 8.44503V7.23365H28.242V19.4574V19.4574Z" fill="#525252"/>
<path d="M61.9329 13.2235C61.8828 9.48674 59.0788 6.99103 55.4487 6.99103C51.5933 6.99103 48.7893 9.80259 48.7893 13.3447C48.7893 16.8886 51.5432 19.7 55.5488 19.7C58.2026 19.7 60.3306 18.44 61.3571 16.4273L58.7533 15.3832C58.0774 16.5244 56.8507 17.1557 55.5239 17.1557C53.6712 17.1557 52.2192 15.893 51.9688 13.902H61.9078L61.9329 13.2235V13.2235ZM55.4738 9.48674C56.9508 9.48674 57.9522 10.2642 58.478 11.5033H52.2943C52.8451 10.2642 53.9465 9.48674 55.4738 9.48674V9.48674Z" fill="#525252"/>
<path d="M67.7158 0.78302H64.4893V19.4598H67.7158V0.78302Z" fill="#525252"/>
<path d="M74.354 0.78302H71.1275V19.4598H74.354V0.78302Z" fill="#525252"/>
<path d="M83.6407 19.7C87.3972 19.7 90.2985 16.8887 90.2985 13.3455C90.2985 9.80219 87.3972 6.99103 83.6407 6.99103C79.834 6.99103 76.9578 9.80219 76.9578 13.3455C76.9578 16.8887 79.834 19.7 83.6407 19.7ZM83.6407 16.7919C81.6369 16.7919 80.0591 15.2628 80.0591 13.3455C80.0591 11.4282 81.6369 9.92335 83.6407 9.92335C85.5692 9.92335 87.1472 11.4282 87.1472 13.3455C87.1472 15.2628 85.5692 16.7919 83.6407 16.7919V16.7919Z" fill="#525252"/>
<path d="M101.479 16.5297L103.14 16.7288C102.878 17.6694 102.393 18.3994 101.684 18.9188C100.976 19.4381 100.07 19.6979 98.9688 19.6979C97.5812 19.6979 96.481 19.2838 95.6681 18.4556C94.8553 17.6275 94.4488 16.4662 94.4488 14.9716C94.4488 13.425 94.8597 12.2247 95.6816 11.3706C96.5033 10.5166 97.5693 10.0896 98.8795 10.0896C100.148 10.0896 101.184 10.5079 101.988 11.3447C102.792 12.1814 103.194 13.3587 103.194 14.8764C103.194 14.9687 103.191 15.1072 103.185 15.2918H96.1103C96.1698 16.3017 96.4647 17.075 96.9947 17.6117C97.5246 18.1484 98.1857 18.4167 98.9777 18.4167C99.5673 18.4167 100.07 18.2667 100.487 17.9666C100.904 17.6666 101.235 17.1875 101.479 16.5297V16.5297ZM96.1996 14.0108H101.497C101.425 13.2375 101.223 12.6575 100.889 12.2709C100.377 11.6708 99.7133 11.3706 98.8974 11.3706C98.1589 11.3706 97.5381 11.6101 97.0348 12.0892C96.5316 12.5681 96.2532 13.2086 96.1996 14.0108V14.0108Z" fill="#525252"/>
<path d="M104.516 16.7461L106.106 16.5037C106.196 17.1212 106.444 17.5944 106.852 17.9233C107.26 18.2523 107.83 18.4167 108.563 18.4167C109.301 18.4167 109.849 18.271 110.206 17.9796C110.564 17.6882 110.742 17.3462 110.742 16.9538C110.742 16.6019 110.585 16.3248 110.269 16.1228C110.049 15.9844 109.501 15.8084 108.625 15.5949C107.446 15.3063 106.629 15.0567 106.173 14.8461C105.718 14.6354 105.372 14.3441 105.137 13.9718C104.902 13.5996 104.784 13.1884 104.784 12.7383C104.784 12.3286 104.881 11.9492 105.074 11.6C105.268 11.251 105.532 10.9609 105.865 10.7301C106.115 10.5512 106.456 10.3997 106.888 10.2757C107.32 10.1516 107.783 10.0896 108.277 10.0896C109.021 10.0896 109.675 10.1934 110.238 10.4012C110.801 10.609 111.216 10.8903 111.484 11.2452C111.752 11.6 111.936 12.0747 112.038 12.669L110.465 12.8768C110.394 12.4036 110.187 12.0343 109.845 11.7688C109.502 11.5034 109.018 11.3706 108.393 11.3706C107.655 11.3706 107.128 11.489 106.812 11.7256C106.496 11.9622 106.339 12.2391 106.339 12.5566C106.339 12.7585 106.404 12.9403 106.535 13.1019C106.666 13.2692 106.872 13.4077 107.151 13.5174C107.312 13.5751 107.786 13.7079 108.572 13.9156C109.709 14.2099 110.503 14.4508 110.952 14.6383C111.402 14.8259 111.755 15.0985 112.011 15.4563C112.267 15.8141 112.395 16.2585 112.395 16.7893C112.395 17.3087 112.239 17.7978 111.926 18.2566C111.613 18.7154 111.162 19.0702 110.573 19.3213C109.983 19.5723 109.316 19.6979 108.572 19.6979C107.339 19.6979 106.4 19.4496 105.753 18.9534C105.107 18.4572 104.695 17.7213 104.516 16.7461V16.7461Z" fill="#525252"/>
<path d="M117.821 18.0998L118.053 19.476C117.6 19.5684 117.195 19.6145 116.838 19.6145C116.254 19.6145 115.802 19.5251 115.48 19.3462C115.159 19.1673 114.932 18.9322 114.801 18.6407C114.67 18.3493 114.605 17.7362 114.605 16.8013V11.5125H113.425V10.3006H114.605V8.02409L116.204 7.08923V10.3006H117.821V11.5125H116.204V16.8879C116.204 17.3322 116.232 17.6178 116.289 17.7448C116.345 17.8718 116.437 17.9728 116.565 18.0477C116.694 18.1228 116.877 18.1603 117.115 18.1603C117.294 18.1603 117.529 18.1401 117.821 18.0998V18.0998Z" fill="#525252"/>
<path d="M125.605 19.4904V18.14C124.866 19.1787 123.863 19.6982 122.594 19.6982C122.035 19.6982 121.512 19.5942 121.027 19.3865C120.541 19.1787 120.181 18.9176 119.946 18.6031C119.711 18.2886 119.545 17.9034 119.45 17.4476C119.385 17.1417 119.352 16.657 119.352 15.9934V10.2976H120.96V15.3961C120.96 16.2097 120.992 16.7579 121.058 17.0407C121.159 17.4505 121.374 17.7721 121.701 18.0058C122.029 18.2395 122.434 18.3564 122.916 18.3564C123.398 18.3564 123.851 18.2366 124.274 17.9972C124.697 17.7577 124.996 17.4317 125.172 17.0191C125.347 16.6065 125.435 16.0078 125.435 15.2229V10.2976H127.043V19.4904H125.605V19.4904Z" fill="#525252"/>
<path d="M135.72 19.4948V18.3349C135.118 19.2467 134.234 19.7026 133.067 19.7026C132.31 19.7026 131.615 19.5006 130.981 19.0966C130.347 18.6927 129.855 18.1286 129.507 17.4044C129.159 16.6801 128.984 15.8477 128.984 14.9071C128.984 13.9895 129.142 13.1571 129.458 12.4097C129.773 11.6625 130.247 11.0897 130.878 10.6915C131.509 10.2934 132.215 10.0943 132.995 10.0943C133.567 10.0943 134.076 10.2112 134.523 10.4449C134.969 10.6786 135.333 10.983 135.613 11.358V6.80493H137.212V19.4948H135.72V19.4948ZM130.637 14.9071C130.637 16.0843 130.893 16.9644 131.405 17.5471C131.917 18.13 132.522 18.4215 133.219 18.4215C133.921 18.4215 134.518 18.143 135.01 17.5862C135.501 17.0293 135.747 16.1795 135.747 15.0369C135.747 13.7789 135.496 12.8556 134.996 12.267C134.496 11.6784 133.88 11.3841 133.147 11.3841C132.432 11.3841 131.835 11.6668 131.356 12.2324C130.877 12.7978 130.637 13.6895 130.637 14.9071V14.9071Z" fill="#525252"/>
<path d="M139.747 8.5968V6.80493H141.355V8.5968H139.747ZM139.747 19.4948V10.302H141.355V19.4948H139.747Z" fill="#525252"/>
<path d="M143.204 14.8937C143.204 13.1913 143.693 11.9304 144.669 11.111C145.485 10.4301 146.48 10.0896 147.653 10.0896C148.957 10.0896 150.023 10.5036 150.851 11.3317C151.679 12.1598 152.092 13.3039 152.092 14.7639C152.092 15.9468 151.909 16.8774 151.543 17.5554C151.177 18.2334 150.644 18.7601 149.944 19.1352C149.244 19.5103 148.481 19.6979 147.653 19.6979C146.325 19.6979 145.251 19.2853 144.432 18.46C143.614 17.6348 143.204 16.446 143.204 14.8937V14.8937ZM144.857 14.8937C144.857 16.0709 145.122 16.9524 145.652 17.5381C146.182 18.1239 146.849 18.4167 147.653 18.4167C148.451 18.4167 149.115 18.1224 149.645 17.5338C150.175 16.9452 150.44 16.0478 150.44 14.8418C150.44 13.705 150.173 12.8436 149.64 12.2579C149.107 11.6722 148.445 11.3793 147.653 11.3793C146.849 11.3793 146.182 11.6708 145.652 12.2535C145.122 12.8364 144.857 13.7165 144.857 14.8937V14.8937Z" fill="#525252"/>
</svg>
